<svg xmlns="http://www.w3.org/2000/svg" width="36" height="36" viewBox="0 0 36 36"><path d="M36 31a5 5 0 0 1-5 5H5a5 5 0 0 1-5-5V5a5 5 0 0 1 5-5h26a5 5 0 0 1 5 5z" fill="#0078d4"/><path d="M24 31V20.901c0-1.689-.819-2.698-2.192-2.698-.815 0-1.414.459-1.779 1.364-.017.064-.041.325-.031 1.114L20 31h-7V12h7v1.061C21.022 12.356 22.275 12 23.738 12c4.547 0 7.261 3.093 7.261 8.274L31 31zM5 31V12h3.457C6.454 12 5 10.528 5 8.499S6.478 5 8.514 5C10.526 5 11.959 6.431 12 8.479 12 10.523 10.521 12 8.485 12H12v19z" opacity=".05"/><path d="M24.5 30.5v-9.599c0-1.973-1.031-3.198-2.692-3.198-1.295 0-1.935.912-2.243 1.677-.082.199-.071.989-.067 1.326L19.5 30.5h-6v-18h6v1.638c.795-.823 2.075-1.638 4.238-1.638 4.233 0 6.761 2.906 6.761 7.774L30.5 30.5zm-19 0v-18h6v18zm2.957-19C6.744 11.5 5.5 10.238 5.5 8.499S6.768 5.5 8.514 5.5c1.724 0 2.951 1.229 2.986 2.989 0 1.749-1.268 3.011-3.015 3.011z" opacity=".07"/><path d="M6 13h5v17H6zm2.485-2h-.028C6.965 11 6 9.888 6 8.499 6 7.08 6.995 6 8.514 6S10.972 7.08 11 8.499C11 9.887 10.035 11 8.485 11M30 30h-5v-9.099c0-2.198-1.225-3.698-3.192-3.698-1.501 0-2.313 1.012-2.707 1.99-.144.35-.101 1.318-.101 1.807v9h-5V13h5v2.616C19.721 14.5 20.85 13 23.738 13c3.578 0 6.261 2.25 6.261 7.274z" fill="#fff"/></svg>