<svg xmlns="http://www.w3.org/2000/svg" width="36" height="36" viewBox="0 0 36 36"><linearGradient id="a" gradientUnits="userSpaceOnUse" x1="17.678" y1=".136" x2="17.713" y2="36.023"><stop offset="0"/><stop offset="1"/></linearGradient><path d="M34.004 35.969 2.031 36a2.004 2.004 0 0 1-2-1.996L0 2.031a2.004 2.004 0 0 1 1.996-2L33.969 0a2.004 2.004 0 0 1 2 1.996L36 33.969a2.004 2.004 0 0 1-1.996 2" fill="url(#a)"/><path d="M23.208 14.607a9.6 9.6 0 0 0 5.592 1.788v-4.011q-.594 0-1.174-.123v3.157a9.6 9.6 0 0 1-5.592-1.788v8.184a7.415 7.415 0 0 1-7.417 7.413 7.4 7.4 0 0 1-4.129-1.254 7.4 7.4 0 0 0 5.303 2.23 7.415 7.415 0 0 0 7.417-7.413zm1.449-4.046a5.6 5.6 0 0 1-1.449-3.273v-.516h-1.113a5.62 5.62 0 0 0 2.562 3.789M13.079 24.832a3.392 3.392 0 0 1 2.701-5.444 3.4 3.4 0 0 1 1.029.159v-4.1a7.6 7.6 0 0 0-1.174-.068v3.191a3.392 3.392 0 0 0-2.556 6.262" fill="#ec407a"/><path d="M22.034 13.63a9.6 9.6 0 0 0 5.592 1.788v-3.157a5.62 5.62 0 0 1-2.969-1.701 5.6 5.6 0 0 1-2.561-3.788h-2.923V22.79a3.39 3.39 0 0 1-3.393 3.379 3.39 3.39 0 0 1-2.701-1.338 3.39 3.39 0 0 1-1.866-3.029 3.392 3.392 0 0 1 4.423-3.232v-3.19a7.414 7.414 0 0 0-5.146 12.594 7.4 7.4 0 0 0 4.129 1.254 7.415 7.415 0 0 0 7.417-7.413z" fill="#fff"/><path d="M27.626 12.262v-.854a5.6 5.6 0 0 1-2.969-.848 5.6 5.6 0 0 0 2.969 1.702m-5.531-5.49-.061-.461v-.516h-4.036v16.019a3.39 3.39 0 0 1-3.393 3.379 3.4 3.4 0 0 1-1.526-.362 3.39 3.39 0 0 0 2.701 1.338 3.39 3.39 0 0 0 3.393-3.379V6.772zm-6.46 8.608v-.909a7.415 7.415 0 0 0-5.147 13.503 7.38 7.38 0 0 1-2.114-5.183 7.415 7.415 0 0 1 7.261-7.411" fill="#81d4fa"/></svg>