<?xml version="1.0" encoding="UTF-8" standalone="no"?>
<svg
   viewBox="0 0 549.99999 279.99999"
   height="280"
   width="550"
   xml:space="preserve"
   id="svg2"
   version="1.1"
   sodipodi:docname="logo-small.svg"
   inkscape:version="1.1.2 (0a00cf5339, 2022-02-04, custom)"
   xmlns:inkscape="http://www.inkscape.org/namespaces/inkscape"
   xmlns:sodipodi="http://sodipodi.sourceforge.net/DTD/sodipodi-0.dtd"
   xmlns="http://www.w3.org/2000/svg"
   xmlns:svg="http://www.w3.org/2000/svg"
   xmlns:rdf="http://www.w3.org/1999/02/22-rdf-syntax-ns#"
   xmlns:cc="http://creativecommons.org/ns#"
   xmlns:dc="http://purl.org/dc/elements/1.1/"><sodipodi:namedview
     id="namedview47"
     pagecolor="#ffffff"
     bordercolor="#999999"
     borderopacity="1"
     inkscape:pageshadow="0"
     inkscape:pageopacity="0"
     inkscape:pagecheckerboard="0"
     showgrid="false"
     inkscape:zoom="3.9959999"
     inkscape:cx="178.80381"
     inkscape:cy="116.74175"
     inkscape:window-width="1920"
     inkscape:window-height="1025"
     inkscape:window-x="-8"
     inkscape:window-y="-8"
     inkscape:window-maximized="1"
     inkscape:current-layer="g14" /><metadata
     id="metadata8"><rdf:RDF><cc:Work
         rdf:about=""><dc:format>image/svg+xml</dc:format><dc:type
           rdf:resource="http://purl.org/dc/dcmitype/StillImage" /></cc:Work></rdf:RDF></metadata><defs
     id="defs6"><clipPath
       id="clipPath18"
       clipPathUnits="userSpaceOnUse"><path
         id="path16"
         d="M 0,2000 H 2000 V 0 H 0 Z" /></clipPath></defs><g
     transform="matrix(1.3333333,0,0,-1.3333333,0,2666.6667)"
     id="g10"><g
       id="g12"><g
         clip-path="url(#clipPath18)"
         id="g14"><path
           id="path22"
           style="fill:#0079ec;fill-opacity:1;fill-rule:nonzero;stroke:none"
           d="m 133.84215,1872.053 h 8.96 c 3.016,0 5.656,0.573 7.918,1.719 2.263,1.146 4.028,2.851 5.295,5.114 1.266,2.262 1.9,5.022 1.9,8.281 0,3.196 -0.634,5.911 -1.9,8.144 -1.267,2.231 -3.032,3.921 -5.295,5.068 -2.262,1.146 -4.902,1.72 -7.918,1.72 h -8.96 z m -21.358,-16.652 v 63.35 h 31.223 c 7.059,0 13.272,-1.283 18.642,-3.847 5.37,-2.565 9.562,-6.199 12.58,-10.905 3.016,-4.706 4.525,-10.317 4.525,-16.832 0,-6.577 -1.509,-12.234 -4.525,-16.969 -3.018,-4.737 -7.21,-8.387 -12.58,-10.951 -5.37,-2.565 -11.583,-3.846 -18.642,-3.846 z" /><path
           id="path24"
           style="fill:#0079ec;fill-opacity:1;fill-rule:nonzero;stroke:none"
           d="m 206.78425,1895.2211 h 28.236 v -15.385 h -28.236 z m 1.448,-23.711 h 31.674 v -16.109 h -52.67 v 63.349 h 51.494 v -16.108 h -30.498 z" /><path
           id="path28"
           style="fill:#0079ec;fill-opacity:1;fill-rule:nonzero;stroke:none"
           d="m 257.73355,1866.4419 5.43,15.385 h 29.141 l 5.43,-15.385 z m -16.47,-11.041 27.692,63.35 h 20.996 l 27.692,-63.35 h -22.081 l -20.453,53.214 h 8.326 l -20.453,-53.214 z" /><path
           id="path32"
           style="fill:#0079ec;fill-opacity:1;fill-rule:nonzero;stroke:none"
           d="m 321.08245,1855.4011 v 63.349 h 21.358 v -46.787 h 28.598 v -16.562 z" /><path
           id="path74"
           style="fill:#0079ec;fill-opacity:1;fill-rule:nonzero;stroke:none"
           d="m 85.775556,1828.3884 24.426004,18.016 -28.122004,38.128 -24.426,-18.016 z" /><path
           id="path76"
           style="fill:#3e3f43;fill-opacity:1;fill-rule:nonzero;stroke:none"
           d="M 92.493254,1871.2861 H 62.142256 v 47.377 h 30.350998 z" /><path
           id="path80"
           style="fill:#3e3f43;fill-opacity:1;fill-rule:nonzero;stroke:none"
           d="m 72.116256,1828.5477 -27.4,13.054 20.376,42.771 27.401,-13.054 z" /><path
           id="path84"
           style="fill:#0079ec;fill-opacity:1;fill-rule:nonzero;stroke:none"
           d="m 68.861556,1862.8377 -27.4,13.054 20.376,42.771 27.401,-13.054 z" /><path
           id="path88"
           style="fill:#0079ec;fill-opacity:1;fill-rule:nonzero;stroke:none;stroke-width:1.33333"
           d="M 88.945312 51.183594 L 77.064453 90.738281 L 116.61914 102.61914 L 128.5 63.066406 L 88.945312 51.183594 z M 97.597656 67.265625 L 112.41797 71.716797 L 107.9668 86.539062 L 93.144531 82.085938 L 97.597656 67.265625 z "
           transform="matrix(0.75000002,0,0,-0.75000002,0,2000.0001)" /></g></g></g></svg>
