<?xml version="1.0" encoding="UTF-8" standalone="no"?>
<svg
   viewBox="0 0 1560 279.99999"
   height="280"
   width="1560"
   xml:space="preserve"
   id="svg2"
   version="1.1"
   sodipodi:docname="logo.svg"
   inkscape:version="1.1.2 (0a00cf5339, 2022-02-04, custom)"
   xmlns:inkscape="http://www.inkscape.org/namespaces/inkscape"
   xmlns:sodipodi="http://sodipodi.sourceforge.net/DTD/sodipodi-0.dtd"
   xmlns="http://www.w3.org/2000/svg"
   xmlns:svg="http://www.w3.org/2000/svg"
   xmlns:rdf="http://www.w3.org/1999/02/22-rdf-syntax-ns#"
   xmlns:cc="http://creativecommons.org/ns#"
   xmlns:dc="http://purl.org/dc/elements/1.1/"><sodipodi:namedview
     id="namedview47"
     pagecolor="#ffffff"
     bordercolor="#999999"
     borderopacity="1"
     inkscape:pageshadow="0"
     inkscape:pageopacity="0"
     inkscape:pagecheckerboard="0"
     showgrid="false"
     inkscape:zoom="0.99899996"
     inkscape:cx="331.83185"
     inkscape:cy="80.580584"
     inkscape:window-width="1920"
     inkscape:window-height="1025"
     inkscape:window-x="-8"
     inkscape:window-y="-8"
     inkscape:window-maximized="1"
     inkscape:current-layer="svg2" /><metadata
     id="metadata8"><rdf:RDF><cc:Work
         rdf:about=""><dc:format>image/svg+xml</dc:format><dc:type
           rdf:resource="http://purl.org/dc/dcmitype/StillImage" /></cc:Work></rdf:RDF></metadata><defs
     id="defs6"><clipPath
       id="clipPath18"
       clipPathUnits="userSpaceOnUse"><path
         id="path16"
         d="M 0,2000 H 2000 V 0 H 0 Z" /></clipPath></defs><g
     id="g1491"><path
       id="path22"
       style="fill:#0079ec;fill-opacity:1;fill-rule:nonzero;stroke:none;stroke-width:1.33333"
       d="m 173.17413,169.41173 h 11.94667 c 4.02133,0 7.54133,-0.764 10.55733,-2.292 3.01733,-1.528 5.37067,-3.80133 7.06,-6.81867 1.688,-3.016 2.53333,-6.696 2.53333,-11.04133 0,-4.26133 -0.84533,-7.88133 -2.53333,-10.85867 -1.68933,-2.97466 -4.04267,-5.228 -7.06,-6.75733 -3.016,-1.528 -6.536,-2.29333 -10.55733,-2.29333 H 173.17413 Z M 144.6968,191.6144 v -84.46667 h 41.63066 c 9.412,0 17.696,1.71067 24.856,5.12933 7.16,3.42 12.74934,8.26534 16.77334,14.54 4.02133,6.27467 6.03333,13.756 6.03333,22.44267 0,8.76933 -2.012,16.312 -6.03333,22.62533 -4.024,6.316 -9.61334,11.18267 -16.77334,14.60134 -7.16,3.42 -15.444,5.128 -24.856,5.128 z" /><path
       id="path24"
       style="fill:#0079ec;fill-opacity:1;fill-rule:nonzero;stroke:none;stroke-width:1.33333"
       d="m 270.43026,138.52093 h 37.648 v 20.51334 h -37.648 z m 1.93067,31.61467 h 42.232 v 21.47867 h -70.22667 v -84.46534 h 68.65867 v 21.47734 h -40.664 z" /><path
       id="path28"
       style="fill:#0079ec;fill-opacity:1;fill-rule:nonzero;stroke:none;stroke-width:1.33333"
       d="m 338.36266,176.8932 7.24,-20.51333 h 38.85467 l 7.24,20.51333 z m -21.96,14.72133 36.92267,-84.46666 h 27.99466 l 36.92267,84.46666 h -29.44133 l -27.27067,-70.952 h 11.10133 l -27.27066,70.952 z" /><path
       id="path32"
       style="fill:#0079ec;fill-opacity:1;fill-rule:nonzero;stroke:none;stroke-width:1.33333"
       d="m 422.82786,191.61427 v -84.46533 h 28.47733 v 62.38266 h 38.13067 v 22.08267 z" /><path
       id="path36"
       style="fill:#0079ec;fill-opacity:1;fill-rule:nonzero;stroke:none;stroke-width:1.33333"
       d="m 561.95252,169.41173 h 11.94667 c 4.02133,0 7.54133,-0.764 10.55733,-2.292 3.01733,-1.528 5.36933,-3.80133 7.06,-6.81867 1.688,-3.016 2.53333,-6.696 2.53333,-11.04133 0,-4.26133 -0.84533,-7.88133 -2.53333,-10.85867 -1.69067,-2.97466 -4.04267,-5.228 -7.06,-6.75733 -3.016,-1.528 -6.536,-2.29333 -10.55733,-2.29333 h -11.94667 z m -28.47733,22.20267 v -84.46667 h 41.63066 c 9.412,0 17.696,1.71067 24.856,5.12933 7.16,3.42 12.74934,8.26534 16.77334,14.54 4.02133,6.27467 6.03333,13.756 6.03333,22.44267 0,8.76933 -2.012,16.312 -6.03333,22.62533 -4.024,6.316 -9.61334,11.18267 -16.77334,14.60134 -7.16,3.42 -15.444,5.128 -24.856,5.128 z" /><path
       id="path38"
       style="fill:#0079ec;fill-opacity:1;fill-rule:nonzero;stroke:none;stroke-width:1.33333"
       d="m 659.20759,138.52093 h 37.648 v 20.51334 h -37.648 z m 1.93066,31.61467 h 42.232 v 21.47867 h -70.22666 v -84.46534 h 68.65866 v 21.47734 h -40.664 z" /><path
       id="path42"
       style="fill:#0079ec;fill-opacity:1;fill-rule:nonzero;stroke:none;stroke-width:1.33333"
       d="m 739.69038,191.61427 -35.716,-84.46533 h 30.648 l 29.08,71.312 h -18.22 l 29.92533,-71.312 h 27.99467 l -35.71733,84.46533 z" /><path
       id="path44"
       style="fill:#0079ec;fill-opacity:1;fill-rule:nonzero;stroke:none;stroke-width:1.33333"
       d="m 832.24092,138.52093 h 37.64799 v 20.51334 h -37.64799 z m 1.93066,31.61467 h 42.232 v 21.47867 h -70.22666 v -84.46534 h 68.65866 v 21.47734 h -40.664 z" /><path
       id="path48"
       style="fill:#0079ec;fill-opacity:1;fill-rule:nonzero;stroke:none;stroke-width:1.33333"
       d="m 887.38251,191.61427 v -84.46533 h 28.47733 v 62.38266 h 38.13067 v 22.08267 z" /><path
       id="path52"
       style="fill:#0079ec;fill-opacity:1;fill-rule:nonzero;stroke:none;stroke-width:1.33333"
       d="m 1004.9106,170.4976 c 2.6547,0 5.128,-0.48267 7.4213,-1.448 2.292,-0.96533 4.3027,-2.352 6.032,-4.16267 1.7294,-1.81066 3.0774,-4.02133 4.0427,-6.63733 0.9653,-2.612 1.448,-5.568 1.448,-8.868 0,-3.29733 -0.4827,-6.25467 -1.448,-8.86933 -0.9653,-2.61334 -2.3133,-4.82667 -4.0427,-6.636 -1.7293,-1.81067 -3.74,-3.19867 -6.032,-4.164 -2.2933,-0.96534 -4.7666,-1.44667 -7.4213,-1.44667 -2.6547,0 -5.128,0.48133 -7.42133,1.44667 -2.292,0.96533 -4.304,2.35333 -6.03334,4.164 -1.73066,1.80933 -3.076,4.02266 -4.04133,6.636 -0.96533,2.61466 -1.44933,5.572 -1.44933,8.86933 0,3.3 0.484,6.256 1.44933,8.868 0.96533,2.616 2.31067,4.82667 4.04133,6.63733 1.72934,1.81067 3.74134,3.19734 6.03334,4.16267 2.29333,0.96533 4.76663,1.448 7.42133,1.448 m 0.12,23.048 c -6.91867,0 -13.29333,-1.08667 -19.12533,-3.25867 -5.83334,-2.172 -10.88,-5.24933 -15.144,-9.23066 -4.264,-3.98134 -7.58134,-8.668 -9.95334,-14.05734 -2.37466,-5.388 -3.56,-11.26133 -3.56,-17.61733 0,-6.43467 1.18534,-12.32667 3.56,-17.67733 2.372,-5.34934 5.68934,-10.01467 9.95334,-13.99734 4.264,-3.98266 9.31066,-7.05866 15.144,-9.23066 5.832,-2.17334 12.16666,-3.25867 19.00533,-3.25867 6.9173,0 13.2733,1.08533 19.0653,3.25867 5.792,2.172 10.8187,5.248 15.0827,9.23066 4.2627,3.98267 7.5813,8.648 9.9547,13.99734 2.372,5.35066 3.56,11.24266 3.56,17.67733 0,6.356 -1.188,12.22933 -3.56,17.61733 -2.3734,5.38934 -5.692,10.076 -9.9547,14.05734 -4.264,3.98133 -9.2907,7.05866 -15.0827,9.23066 -5.792,2.172 -12.108,3.25867 -18.9453,3.25867" /><path
       id="path56"
       style="fill:#0079ec;fill-opacity:1;fill-rule:nonzero;stroke:none;stroke-width:1.33333"
       d="m 1091.4262,161.8096 -12.6693,-12.91067 h 23.0466 c 3.94,0 6.8574,-0.884 8.7494,-2.65466 1.888,-1.76934 2.8346,-4.18134 2.8346,-7.24 0,-3.056 -0.9466,-5.46934 -2.8346,-7.24 -1.892,-1.76934 -4.8094,-2.65467 -8.7494,-2.65467 h -23.0466 l 12.6693,-12.912 z m -28.4773,29.804 v -84.46533 h 40.6653 c 7.8827,0 14.7,1.288 20.452,3.86133 5.7507,2.57467 10.196,6.256 13.3333,11.04133 3.1374,4.78667 4.7067,10.43734 4.7067,16.95334 0,6.516 -1.5693,12.14666 -4.7067,16.89333 -3.1373,4.74667 -7.5826,8.428 -13.3333,11.04 -5.752,2.616 -12.5693,3.92267 -20.452,3.92267 h -24.8573 l 12.6693,-12.188 v 32.94133 z" /><path
       id="path60"
       style="fill:#0079ec;fill-opacity:1;fill-rule:nonzero;stroke:none;stroke-width:1.33333"
       d="m 1151.3972,191.61427 v -84.46533 h 23.4093 l 33.7867,55.144 h -12.308 l 32.82,-55.144 h 23.4093 l 0.2414,84.46533 h -25.9427 l -0.2413,-45.37067 h 4.1026 l -22.444,37.768 h -12.548 l -23.4093,-37.768 h 5.068 v 45.37067 z" /><path
       id="path62"
       style="fill:#0079ec;fill-opacity:1;fill-rule:nonzero;stroke:none;stroke-width:1.33333"
       d="m 1292.5742,138.52093 h 37.648 v 20.51334 h -37.648 z m 1.9307,31.61467 h 42.2333 v 21.47867 h -70.2266 v -84.46534 h 68.6586 v 21.47734 h -40.6653 z" /><path
       id="path66"
       style="fill:#0079ec;fill-opacity:1;fill-rule:nonzero;stroke:none;stroke-width:1.33333"
       d="m 1347.7174,191.61427 v -84.46533 h 23.4093 l 42.956,51.40266 h -10.8586 v -51.40266 h 27.7533 v 84.46533 h -23.4093 l -42.9574,-51.404 h 10.8587 v 51.404 z" /><path
       id="path70"
       style="fill:#0079ec;fill-opacity:1;fill-rule:nonzero;stroke:none;stroke-width:1.33333"
       d="m 1463.0714,191.61427 v -62.384 h -24.736 v -22.08133 h 77.9493 v 22.08133 h -24.736 v 62.384 z" /><path
       id="path74"
       style="fill:#0079ec;fill-opacity:1;fill-rule:nonzero;stroke:none;stroke-width:1.33333"
       d="m 109.08533,227.6312 32.568,-24.02133 -37.496,-50.83733 -32.567999,24.02133 z" /><path
       id="path76"
       style="fill:#3e3f43;fill-opacity:1;fill-rule:nonzero;stroke:none;stroke-width:1.33333"
       d="M 118.04227,170.43427 H 77.574268 v -63.16934 h 40.468002 z" /><path
       id="path80"
       style="fill:#3e3f43;fill-opacity:1;fill-rule:nonzero;stroke:none;stroke-width:1.33333"
       d="m 90.872934,227.4188 -36.533332,-17.40533 27.167999,-57.028 36.534669,17.40533 z" /><path
       id="path84"
       style="fill:#0079ec;fill-opacity:1;fill-rule:nonzero;stroke:none;stroke-width:1.33333"
       d="m 86.533334,181.6988 -36.533332,-17.40533 27.167999,-57.028 36.534669,17.40533 z" /><path
       id="path88"
       style="fill:#0079ec;fill-opacity:1;fill-rule:nonzero;stroke:none;stroke-width:1.33333"
       d="M 83.664062 50 L 71.783203 89.552734 L 111.33594 101.43555 L 123.2168 61.880859 L 83.664062 50 z M 92.314453 66.080078 L 107.13672 70.533203 L 102.68359 85.355469 L 87.863281 80.902344 L 92.314453 66.080078 z " /></g></svg>
