<svg xmlns="http://www.w3.org/2000/svg" width="36" height="36" viewBox="0 0 36 36"><radialGradient id="b" cx="19.38" cy="42.035" r="44.899" gradientUnits="userSpaceOnUse" gradientTransform="translate(-5.987 -5.987)scale(.99947)"><stop offset="0" stop-color="#fd5"/><stop offset=".328" stop-color="#ff543f"/><stop offset=".348" stop-color="#fc5245"/><stop offset=".504" stop-color="#e64771"/><stop offset=".643" stop-color="#d53e91"/><stop offset=".761" stop-color="#cc39a4"/><stop offset=".841" stop-color="#c837ab"/></radialGradient><use href="#a" fill="url(#b)"/><radialGradient id="c" cx="11.786" cy="5.54" r="29.813" gradientTransform="matrix(.99947 0 0 .66595 -5.987 -4.139)" gradientUnits="userSpaceOnUse"><stop offset="0" stop-color="#4168c9"/><stop offset=".999" stop-color="#4168c9" stop-opacity="0"/></radialGradient><use href="#a" fill="url(#c)"/><g fill="#fff"><path d="M18 24.997c-3.857 0-6.996-3.138-6.996-6.996s3.139-6.996 6.996-6.996 6.996 3.138 6.996 6.996-3.139 6.996-6.996 6.996m0-11.994c-2.756 0-4.997 2.242-4.997 4.997s2.242 4.997 4.997 4.997 4.997-2.242 4.997-4.997-2.242-4.997-4.997-4.997"/><circle cx="25.497" cy="10.504" r="1.499"/><path d="M23.997 30.994H12.004a7.004 7.004 0 0 1-6.996-6.996V12.004a7.004 7.004 0 0 1 6.996-6.996h11.994a7.004 7.004 0 0 1 6.996 6.996v11.994a7.004 7.004 0 0 1-6.996 6.996zM12.004 7.006a5 5 0 0 0-4.997 4.997v11.994a5 5 0 0 0 4.997 4.997h11.994a5 5 0 0 0 4.997-4.997V12.004a5 5 0 0 0-4.997-4.997z"/></g><defs><path id="a" d="M28.012 35.981 8.023 36c-4.398.004-7.999-3.59-8.004-7.988L0 8.023C-.004 3.625 3.59.024 7.988.019L27.977 0c4.398-.004 7.999 3.59 8.004 7.988L36 27.977a8.02 8.02 0 0 1-7.988 8.004"/></defs></svg>