<svg xmlns="http://www.w3.org/2000/svg" width="24" height="24" viewBox="0 0 24 24"><path d="M21.333 0H2.667A2.666 2.666 0 0 0 0 2.667v18.667A2.665 2.665 0 0 0 2.667 24h18.667A2.665 2.665 0 0 0 24 21.333V2.667A2.666 2.666 0 0 0 21.333 0M8 18.667H4.636V9.333H8zM6.259 7.623c-1.028 0-1.715-.685-1.715-1.6s.685-1.6 1.828-1.6c1.028 0 1.715.685 1.715 1.6s-.685 1.6-1.828 1.6M20 18.667h-3.256v-5.101c0-1.411-.868-1.736-1.193-1.736s-1.411.217-1.411 1.736v5.101h-3.364V9.333h3.364v1.303c.433-.76 1.301-1.303 2.929-1.303S20 10.636 20 13.565z" style="fill:#fff"/></svg>