<svg xmlns="http://www.w3.org/2000/svg" viewBox="0 0 36 36" width="36" height="36"><path fill="#1e88e5" d="M28 36H8a8.01 8.01 0 0 1-8-8V8a8.01 8.01 0 0 1 8-8h20a8.01 8.01 0 0 1 8 8v20a8.01 8.01 0 0 1-8 8"/><path fill="#fff" d="M29.926 11.488 23.414 18l6.511 6.511A2 2 0 0 0 30 24V12c0-.178-.031-.347-.074-.512m-9.238 6.411 7.824-7.825A2 2 0 0 0 28 10H8c-.178 0-.347.031-.512.074l7.824 7.825a3.81 3.81 0 0 0 5.376 0M18 21.009a5.78 5.78 0 0 1-3.99-1.605l-6.522 6.522c.165.043.334.074.512.074h20c.178 0 .347-.031.512-.074l-6.522-6.522A5.78 5.78 0 0 1 18 21.009M6.074 11.488A2 2 0 0 0 6 12v12c0 .178.031.347.074.512L12.586 18z"/></svg>